<?xml version="1.0" encoding="UTF-8" standalone="no"?>
<svg
   version="1.1"
   viewBox="0 0 604.9223 525.55146"
   id="svg205"
   sodipodi:docname="frame.svg"
   inkscape:version="1.3 (0e150ed, 2023-07-21)"
   width="604.9223"
   height="525.55145"
   xmlns:inkscape="http://www.inkscape.org/namespaces/inkscape"
   xmlns:sodipodi="http://sodipodi.sourceforge.net/DTD/sodipodi-0.dtd"
   xmlns="http://www.w3.org/2000/svg"
   xmlns:svg="http://www.w3.org/2000/svg">
  <defs
     id="defs205" />
  <sodipodi:namedview
     id="namedview205"
     inkscape:showpageshadow="2"
     inkscape:pageopacity="0.0"
     inkscape:pagecheckerboard="true"
     inkscape:deskcolor="#d1d1d1"
     inkscape:zoom="5.862191"
     inkscape:cx="546.72391"
     inkscape:cy="451.79354"
     inkscape:window-width="1504"
     inkscape:window-height="892"
     inkscape:window-x="0"
     inkscape:window-y="38"
     inkscape:window-maximized="0"
     inkscape:current-layer="layer3"
     bordercolor="#000000"
     borderopacity="0.25"
     showgrid="false"
     showguides="true"
     pagecolor="#ffffff">
    <sodipodi:guide
       position="27.383845,0.027836119"
       orientation="0,-1"
       id="guide1"
       inkscape:locked="false" />
    <sodipodi:guide
       position="566.23647,268.62415"
       orientation="1,0"
       id="guide2"
       inkscape:locked="false" />
    <sodipodi:guide
       position="305.8782,488.48009"
       orientation="0,-1"
       id="guide3"
       inkscape:locked="false" />
    <sodipodi:guide
       position="284.11371,76.680116"
       orientation="0,-1"
       id="guide4"
       inkscape:locked="false" />
    <sodipodi:guide
       position="36.857636,262.24855"
       orientation="1,0"
       id="guide5"
       inkscape:locked="false" />
    <sodipodi:guide
       position="285.07396,464.20687"
       orientation="0,-1"
       id="guide6"
       inkscape:locked="false" />
    <sodipodi:guide
       position="336.38412,93.009896"
       orientation="0,-1"
       id="guide7"
       inkscape:locked="false" />
    <sodipodi:guide
       position="52.118198,370.73509"
       orientation="1,0"
       id="guide8"
       inkscape:locked="false" />
    <sodipodi:guide
       position="553.89796,372.12681"
       orientation="1,0"
       id="guide9"
       inkscape:locked="false" />
    <sodipodi:guide
       position="14.788573,362.96618"
       orientation="0.98480775,0.17364818"
       id="guide10"
       inkscape:locked="false"
       inkscape:label=""
       inkscape:color="rgb(0,134,229)" />
    <sodipodi:guide
       position="583.86094,469.55326"
       orientation="0.92050485,-0.39073113"
       id="guide11"
       inkscape:locked="false"
       inkscape:label=""
       inkscape:color="rgb(0,134,229)" />
    <sodipodi:guide
       position="525.91767,18.988646"
       orientation="0,-1"
       id="guide12"
       inkscape:locked="false" />
    <sodipodi:guide
       position="585.40373,124.96162"
       orientation="0.92050485,-0.39073113"
       id="guide13"
       inkscape:locked="false"
       inkscape:label=""
       inkscape:color="rgb(0,134,229)" />
    <sodipodi:guide
       position="-13.233127,438.90853"
       orientation="0.98480775,0.17364818"
       id="guide14"
       inkscape:label=""
       inkscape:locked="false"
       inkscape:color="rgb(0,134,229)" />
  </sodipodi:namedview>
  <path
     fill="#1d1d1d"
     d="m 525.91767,506.56283 c 66.94187,-0.2947 38.5071,-0.14425 43.1218,0.006 l 2.10818,11.86406 c 0.0282,2.58312 0.505,7.14132 -0.775,7.10799 -4.73131,0.0314 -15.24644,-0.0172 -21.14674,-0.0172 h -64.9895 c -7.10933,0 -72.21278,0 -83.67894,0.0172 H 71.096607 35.083395 c -1.95,-0.13 -2.075758,-0.89799 -1.695758,-3.09799 0.48,-2.70667 1.26667,-5.31333 2.36,-7.82 1.05,-2.42 0.689999,-5.59008 1.109999,-8.06008 0,0 9.694705,-0.22147 15.711342,-0.10576 38.847828,-0.79199 100.338012,0.0964 115.536402,0.10578 15.19839,0.009 290.87042,0.2947 357.81229,0 z"
     id="path191"
     sodipodi:nodetypes="zcccccccccccczz"
     style="display:inline"
     inkscape:label="Foot" />
  <g
     inkscape:groupmode="layer"
     id="layer3"
     inkscape:label="Frame"
     transform="translate(-0.93798216,-0.99951224)">
    <path
       id="path32"
       style="display:inline;fill:#515151;fill-opacity:1"
       d="m 415.01415,33.959524 c -66.67982,-0.08333 -133.37109,1.96707 -200.07422,6.150391 -23.84658,1.226662 -47.57002,3.289465 -71.16992,6.189453 -9.87998,1.386664 -19.71956,2.779691 -29.51954,4.179688 -4.37999,0.626666 -7.70404,2.040238 -9.9707,4.240234 -1.72095,2.0787 -2.2994,2.771804 -4.434016,7.275061 -0.515753,3.255649 -0.693299,8.108778 -0.776923,9.882981 -1.175485,37.378178 -1.424723,45.949708 -1.70644,55.614138 -0.09458,4.09581 -0.10514,4.9451 -0.16514,6.6151 -0.49333,14.81997 -0.385216,16.40989 -0.691203,31.06978 -0.240088,10.70191 1.63137,23.95346 2.28137,33.14344 0.44667,6.24667 -0.617928,8.71044 -0.157928,14.95711 1.91482,9.81327 3.31271,19.19314 5.6855,28.95939 1.50999,5.75 -0.33499,28.21372 0.53501,33.39371 4.77444,11.08983 6.15084,15.42209 11.5654,28.74757 0.70667,1.50667 8.56843,-3.59992 8.52843,-1.83992 -0.0439,1.29845 1.93897,1.65507 1.67578,3.22266 1.03343,0.6546 0.62294,-1.58783 1.36133,-2.08008 0.22667,-7.16 0.36659,-14.33287 0.41992,-21.51953 0,-0.0333 0.7342,-4.39166 0.46087,-12.72499 -0.14,-4.33331 0.32161,-9.5436 0.68825,-15.28358 0.53333,-8.42665 -0.57602,-26.31592 -0.88935,-54.36253 -0.0232,1.92759 -0.0803,6.63965 0.17969,-16.32031 0.47746,-12.31984 1.45442,-24.71367 1.3457,-36.92773 -0.0111,-0.028 -0.0275,-0.0469 -0.0391,-0.0742 2.28658,-3.13324 3.81333,-14.97041 2.35547,-45.28711 -0.0335,-5.400215 -0.17194,-11.060879 0.95703,-14.664065 l 4.55078,-2.265625 c 32.6132,-2.939988 64.75545,-3.193268 97.462,-4.906594 42.57984,-2.226659 86.5554,-4.185452 129.16188,-4.838781 20.60569,-0.148966 40.62504,-1.273666 61.17104,-1.985094 15.50997,0.22 28.3749,1.696719 43.46485,2.136719 39.76657,1.166664 79.75426,3.404693 119.49414,5.304687 2.73997,0.13 5.59992,0.559922 8.16992,0.669922 7.52664,0.326667 15.04104,0.856514 22.54101,1.589844 6.41333,0.63333 12.62227,1.082945 18.62891,1.349609 6.03997,0.273333 12.4934,-1.688307 18.88672,-1.18164 l -0.91406,1.296875 c 0.0333,0.346665 -0.0829,0.634661 -0.34961,0.861328 -0.95333,0.819997 -1.61568,1.404326 -1.90235,2.097656 -1.63333,3.859988 -3.02964,7.503028 -6.04297,10.429688 -0.27,0.849997 -0.32953,0.51823 -0.26953,0.851562 0.29333,1.626662 0.27464,3.144379 -0.33203,4.484379 l 1.91016,2.56836 c 0.48667,-3.74666 1.55565,-6.908292 3.20898,-9.488286 1.06,-1.659994 1.82435,-3.094117 2.29102,-4.300781 0.88667,-2.286661 1.95565,-4.497532 3.20898,-6.630859 0.16481,-0.273818 0.53654,-0.334474 0.78125,-0.128907 0.76,0.62 1.11701,1.659145 1.07031,3.119141 l 0.21875,12.660152 c 0.79098,2.25542 -0.003,48.47629 0.18576,40.50214 0.33401,-0.16423 3.23609,-1.95247 3.81056,-1.82255 1.71333,0.48 8.97186,-17.54344 6.97982,-13.238 -2.03744,4.40356 26.42684,13.06867 25.2398,-25.722687 -0.0992,-2.974275 -0.74024,-21.436588 -1.47429,-35.854966 -0.0449,-0.539084 -0.17603,-2.112909 -0.22016,-2.633464 -0.15546,-1.575163 -0.48311,-2.593818 -0.73047,-3.550781 -2.41333,-5.739984 -6.46683,-9.035342 -12.16016,-9.888672 -10.65997,-1.606663 -26.1806,-3.496595 -46.56054,-5.669922 -6.60667,-0.706664 -13.2466,-1.280704 -19.91992,-1.720703 C 548.36351,36.259948 481.6939,34.042877 415.01411,33.959544 Z"
       sodipodi:nodetypes="scccccccccccccccccccccccccccccccccccccccccccccccccccscccccccss"
       transform="translate(-94.254381,-32.957571)" />
    <path
       fill="#3f3f3f"
       d="m 8.7109528,129.79733 c 1.4093052,7.99257 3.7810772,20.93453 5.0526472,28.65499 1.271569,7.72045 2.095888,12.63096 3.693631,20.94762 1.597744,8.31666 3.40247,19.79349 4.860222,27.56369 1.457751,7.77019 2.263646,12.59179 3.133646,17.77179 1.286667,7.64667 1.114643,16.85328 2.388829,22.78701 0.76205,3.9577 0.529056,4.61172 2.355882,12.50412 0.477863,2.40854 1.088682,5.18803 3.289809,10.85588 1.075615,16.90576 1.269835,50.81408 0.77618,57.60228 -5.013218,2.34541 -19.753437,-31.31487 -23.584307,-47.5729 -0.286667,-1.41333 -0.7759842,-3.88955 -2.1499996,-7.17 C 5.8207956,262.07047 5.4485946,267.67312 4.5104592,261.41842 9.4836055,246.83559 7.6353425,234.76935 6.8917209,220.30699 1.0000147,208.55582 1.3879515,180.66936 1.4436266,176.74273 c 0.026954,-1.90097 0.1194648,-8.42554 0.1229374,-10.34139 0.6085561,-8.99847 0.208364,-13.02444 0.2759183,-17.78886 l 0.033217,-2.34272 c 0.033817,-1.68823 0.2278312,-7.85352 0.2832987,-10.50357 0.057481,-2.71264 0.3195468,-12.70299 0.3241519,-14.9121 2.5228494,-10.67957 4.8184977,0.95068 6.2278029,8.94324 z"
       id="path140"
       style="display:inline"
       sodipodi:nodetypes="zzzzcccccccccccccccz" />
    <path
       fill="#3f3f3f"
       d="m 600.72562,35.542429 c 4.72667,127.073331 6.19,249.670001 4.39,367.790001 l -0.0474,2.54193 c -0.095,5.06444 -0.35052,8.43892 -0.19246,10.2068 l -2.46288,-2.86469 c -0.67693,0.87594 -1.58045,1.92973 -2.48,2.71 -3.9,1.71333 -7.61396,2.35263 -10.70729,5.28596 -0.61333,0.58667 -1.33,1.56 -2.15,2.92 -0.64,1.06 -1.39667,2.02667 -2.27,2.9 -4.29426,12.78067 -11.76393,23.60825 -16.71614,25.7626 2.7189,1.99386 -2.67866,2.64638 -4.31,0.29 -4.65333,0.27333 -9.3,0.64 -13.94,1.1 -0.7,0.0667 -4.86682,-0.49134 -9.59349,0.22199 -8.54,1.29 -17.92037,0.0217 -26.73037,0.82171 -6.13333,0.56 -12.28333,0.83 -18.45,0.81 -2.49,0 -4.96,0.72 -7.43,0.72 -4.08,0 -8.14667,0.16 -12.2,0.48 -4.04,0.32 -7.87,0.14 -11.77,-0.02 -9.31,-0.4 -18.27493,2.34034 -27.56493,1.87034 -9.94667,-0.50667 -21.02274,-1.58724 -30.97607,-2.04057 -0.32667,-0.0133 -9.13397,0.19092 -9.32064,-0.0824 -4.66202,0.45128 -18.67051,-1.82326 -15.54353,-3.12636 23.94667,-0.88667 66.6085,-2.63397 90.49517,-4.1673 5.48667,-0.35333 12.13,-0.95 19.93,-1.79 18.12752,-1.59786 35.87914,-2.50775 54.06,-4.11 1.28667,0.0667 3.04923,-0.0645 4.32256,0.0355 3.29,0.24 5.71,-0.98 9.32,0.42 0.37533,-0.64342 2.70097,0.37506 2.70097,0.37506 0.71,-0.52243 -1.27765,-0.15331 -1.41976,-4.71699 0,0 -0.27048,-6.61128 -0.16374,-6.7536 1.01333,-15.98667 2.25,-32.03 3.71,-48.13 3.83,-42.21 4.22,-84.95 3.92,-127.31 -0.04,-6.65 0.31,-13.74 0.41,-20.6 -0.21333,-3.56 0.0933,-6.96333 0.92,-10.21 0.56667,-2.26 0.85667,-4.18333 0.87,-5.77 0.04,-7.83 0.27,-15.68 0.08,-23.42 -0.36,-14.32667 -2.05753,-28.81441 -2.1842,-43.14108 -0.1,-10.37 -2.51719,-21.43735 -2.67719,-32.34735 -0.22,-14.37 0.45362,-6.80194 0.78366,-21.86194 1.70199,-2.696677 1.90482,-3.076852 1.97282,-3.059367 1.31472,-1.59004 3.70127,-7.618083 6.52259,-12.181761 2.82132,-4.563678 10.50488,-23.0678 15.90232,-30.478501 2.46001,-3.346008 7.26356,-14.951094 7.41,-16.19 1.29816,-3.406738 1.36801,-6.408193 2.24,-8.87 0.30667,-0.406667 0.41639,-0.384781 0.75178,-1.080387 z"
       id="path141"
       style="display:inline"
       sodipodi:nodetypes="cccccccccccccccscccccccccccccccccccccccczccccc" />
    <path
       fill="#1d1d1d"
       d="m 328.99562,39.562429 c 15.51,0.22 31.4,0.05 46.49,0.49 39.76667,1.166666 79.52,2.7 119.26,4.6 2.74,0.13 5.6,0.56 8.17,0.67 7.52667,0.326666 15.04,0.856666 22.54,1.59 6.41333,0.633333 12.62333,1.083333 18.63,1.35 6.04,0.273333 12.25667,0.663333 18.65,1.17 -1.97333,2.846666 -3.97055,5.494448 -6.46388,7.754448 -0.22,0.193333 -0.98,1.023333 -2.28,2.49 -0.8,0.906667 -1.77667,1.603333 -2.93,2.09 -0.31333,0.126667 -0.53667,0.35 -0.67,0.67 l -1.43,3.37 c -3.4,-1.6 -6.75279,-2.717782 -9.58612,-3.164448 -24.02667,-3.773334 -49.25667,-7.12 -75.69,-10.04 -6.56,-0.726667 -13.19667,-1.37 -19.91,-1.93 -37.70667,-3.126667 -75.47,-5.266667 -113.29,-6.42 -17,-0.51 -34.49,0.05 -51.73,0.07 -6.98667,0.0067 -13.65667,0.143333 -20.01,0.41 -29.32667,1.253333 -48.24333,2.116666 -56.75,2.59 -25.70667,1.446666 -54.19667,4.383333 -85.47,8.81 -15.02,2.126666 -30.040001,4.273333 -45.060001,6.44 -13.14,1.9 -21.74,5.59 -23.37,20.24 -4.78,42.940001 -8.98,81.400001 -9.36,118.730001 -0.24,22.95 -1.74,43.34 -0.94,68.76 0.7,21.93 0.18,45.4 1.83,64.91 2.526667,29.96 5.06,59.91667 7.6,89.87 -0.236572,3.91936 0.130692,6.83617 0.184025,8.74284 0.01333,0.32667 0.16,0.67333 0.44,1.04 0.186667,0.24 0.22,0.5 0.1,0.78 -1.993333,4.60667 -6.625462,11.34932 -10.245462,14.96265 -0.962089,0.96693 -3.357929,-2.00027 -3.326359,-3.36393 0.08,-4.91333 -0.01333,-9.82333 -0.28,-14.73 -0.346666,-6.24 -0.523333,-11.11667 -0.53,-14.63 -0.02,-14.06 -0.176666,-28.12 -0.47,-42.18 -0.36,-17.64 1.034678,-35.11 0.844678,-52.68 0,-2.76781 0.312818,-6.69501 0.12,-13.57 -0.444991,-15.44875 -0.81038,-22.89517 -0.655212,-30.84519 -0.150838,-9.52051 0.19926,-18.95301 0.257103,-28.56422 -0.120307,-3.04097 0.344561,-5.05882 0.07123,-13.39215 -0.14,-4.33333 0.141908,-8.99754 0.09939,-14.74908 -0.0682,-8.54698 0.883947,-27.02425 0.570613,-55.07092 l 0.18,-16.32 0.76,-19.61 2.12,-62.680001 c 0.186667,-3.893334 0.39,-7.58 0.61,-11.06 0.226667,-3.586667 2.12,-5.543334 5.68,-5.87 32.613334,-2.94 65.273335,-5.266667 97.980005,-6.98 42.58,-2.226667 85.17333,-3.666667 127.78,-4.32 z"
       id="path142"
       style="display:inline"
       sodipodi:nodetypes="ccccccccccccccccccccccccccccccccccccccccccccccccc" />
    <path
       fill="#3f3f3f"
       d="m 562.73562,49.432429 0.11,1.41 c 0.0333,0.346667 -0.0833,0.633333 -0.35,0.86 -0.95333,0.82 -1.57333,1.576667 -1.86,2.27 -1.63333,3.86 -3.95667,7.253333 -6.97,10.18 -0.24,0.233333 -0.33,0.516667 -0.27,0.85 0.29333,1.626667 0.13667,3.11 -0.47,4.45 l -4.2,-3.74 1.43,-3.37 c 0.13333,-0.32 0.35667,-0.543333 0.67,-0.67 1.15333,-0.486667 2.13,-1.183333 2.93,-2.09 1.3,-1.466667 2.06,-2.296667 2.28,-2.49 2.49333,-2.26 4.72667,-4.813333 6.7,-7.66 z"
       id="path144"
       style="display:inline;fill:#515151;fill-opacity:1"
       sodipodi:nodetypes="ccccccccccccc" />
    <path
       id="path145"
       style="display:inline;fill:#646464;fill-opacity:1"
       d="m 563.54492,51.601562 c -1.25333,2.133331 -2.63286,4.205523 -3.51953,6.492188 -0.46667,1.206666 -1.23102,2.640783 -2.29101,4.300781 -1.65333,2.579998 -2.41177,5.88029 -2.89844,9.626953 1.39333,4.426663 2.17008,7.351486 2.33008,8.771485 0.49333,4.239996 0.96659,8.516749 1.41992,12.830078 4.80666,47.653283 7.79232,95.475463 8.95898,143.468753 -0.21333,-3.56 0.0933,-6.96232 0.91992,-10.20899 0.56667,-2.26 0.85776,-4.18286 0.8711,-5.76953 0.04,-7.82999 0.27008,-15.67993 0.0801,-23.41992 -0.36,-14.32665 -0.60381,-28.65382 -0.73047,-42.98047 -0.1,-10.36999 -0.74039,-21.75993 -0.90039,-32.66992 -0.22,-14.36999 -1.29875,-29.940016 -0.96875,-45.000001 -0.47298,-0.344121 -0.47356,-0.344422 0,0 0.26,-3.739997 0.088,-8.006817 0.088,-10.812558 -0.11,-6.329994 -0.13,-7.568605 -0.24,-12.4186 0.0467,-1.459999 -1.1849,-2.785039 -1.9449,-3.405039 -0.33564,0.296197 -0.76837,0.625755 -1.17464,1.19479 z"
       sodipodi:nodetypes="cccccccccccccccccc" />
    <path
       fill="#313131"
       d="m 1.566564,166.40134 c 1.5592742,1.58118 2.6524636,12.13655 2.808545,13.91799 0.6944394,6.21216 2.8848521,19.57138 5.838477,36.0698 0.116534,4.03984 0.747124,2.0104 3.217364,18.499 2.470241,16.4886 5.543804,35.34708 11.225435,53.3002 1.796816,6.39282 3.476043,15.4694 6.434684,23.74185 1.381105,3.76232 3.096601,7.67542 3.096601,10.31958 0.19,17.57 0.545916,35.11937 0.905916,52.75937 0.29333,14.06 0.45,28.12 0.47,42.18 0.007,3.51333 0.18333,8.39 0.53,14.63 0.26667,4.90667 0.36,9.81667 0.28,14.73 -0.0316,1.36366 1.61791,2.06693 2.58,1.1 3.62,-3.61333 6.095093,-7.65701 8.088423,-12.26368 -0.371083,-3.42831 -0.116031,-7.07819 0.121577,-10.58632 0.20667,4.41333 1.545363,8.63663 3.892033,12.1033 -0.15333,0.74667 -0.848586,1.07187 -2.315256,1.01187 -0.53386,0.92545 -0.125767,0.88248 -2.686777,3.33483 -2.86,2.76667 -5.44667,5.82 -7.76,9.16 -0.22913,0.3278 -0.12726,0.78159 0.22,0.98 0.43333,0.25333 0.91333,0.2 1.44,-0.16 3.93,-2.69 5.867034,-1.61842 10.227034,-5.10842 0.30825,-0.25054 2.798615,-1.49504 3.196305,-1.46271 1.24667,0.1 2.179991,0.40446 3.166661,-0.30887 0.19309,-0.14142 0.43204,-0.20562 0.67,-0.18 0.244453,-0.61113 2.035911,0.70788 3.164332,0.34956 1.128421,-0.35831 1.992395,-1.36759 5.565668,-1.16956 22.334305,2.59768 44.843334,3.54667 67.270004,5.52 18.88,1.66 36.10855,1.93255 55.07855,3.32251 6.93333,0.5 13.59333,0.82 19.98,0.96 28.94,0.64 59.87145,2.87749 88.83145,2.35749 33.96667,-0.60667 51.57775,-0.98913 85.50442,-2.04246 3.25679,2.12088 12.46693,1.72785 16.06191,2.12088 0.18667,0.27333 7.09361,0.27762 7.4205,0.2833 9.9608,0 19.53359,-0.28141 29.49316,-0.28329 9.385,-0.005 17.47692,0.16334 28.02001,0 10.54309,-0.16335 15.60149,0 23.97,-0.0184 2.46999,-0.005 4.89427,-0.53709 7.43,-0.72 6.15213,-0.4237 12.31667,-0.25 18.45,-0.81 8.99486,-0.61513 19.97769,-0.6325 26.19,-0.78 9.05854,-1.293 12.31209,-1.3546 22.08,-2.27 2.71113,-0.29 4.66749,-1.99251 5.51,-3.21 7.40927,-6.26261 16.85942,-35.02734 19.10812,-40.18981 4.00271,-10.06944 11.09272,-31.10003 13.09826,-35.07695 0.753,-0.51509 4.95585,-14.32258 6.11943,-4.92493 -0.40289,9.80326 -0.7121,42.00046 -0.68652,42.68072 -0.16333,8.78833 -0.35055,15.76084 -0.55179,21.82534 -0.20124,6.06449 -0.4165,11.22097 -0.63593,16.37725 -0.43886,10.31254 -0.89438,20.62425 -1.28772,38.19759 -0.21,9.68 0.14,16.4 -7.28,21.46 -2.12667,1.44667 -5.37,2.54 -9.73,3.28 -5.06667,0.86 -10.20333,1.58 -15.41,2.16 -14.59333,-0.16 -19.50812,-0.0736 -43.12179,-0.006 -23.61367,0.0676 36.28507,0.7004 -357.81229,-5e-5 -20.11428,-0.0358 -104.627006,0 -115.5364,-0.10578 -5.903757,0.10578 -10.733551,0.10578 -15.711342,0.10578 -5.455615,-0.95818 -13.706139,-2.99355 -19.778186,-4.2039 -5.06667,-0.7 -8.7233284,-3.34667 -10.9699984,-7.94 -0.99333,-2.03333 -1.58667,-5 -1.78,-8.9 -0.85,-17.31 -1.3638456,-12.71921 -1.6138456,-30.16921 -0.8,-55.02 -3.23000019,-116.1 -2.22,-175.59 0.45,-26.74 -0.58000019,-55.56 -0.49000004,-74.75 z"
       id="path148"
       style="display:inline"
       sodipodi:nodetypes="czczcccccccccccccccccccczccccccccczscccccccccssccsczzccccccccc" />
    <path
       fill="#515151"
       d="m 559.50562,433.13243 0.6,6.59 c 0.64164,2.11742 0.7175,3.47081 1.82374,5.69927 l -4.02374,-0.97928 c -3.83901,-0.88536 -6.03,-0.18 -9.32,-0.42 -1.27333,-0.1 -2.55333,-0.18333 -3.84,-0.25 4.90667,-0.61333 8.68333,-2.16 11.33,-4.64 0.85333,-0.8 1.99667,-2.8 3.43,-6 z"
       id="path150"
       sodipodi:nodetypes="ccccccccc" />
    <path
       fill="#515151"
       d="m 51.055619,436.90243 c 3.746667,4.44667 7.12288,6.38883 13.34288,6.42883 -3.033465,0.71272 -3.564467,1.19802 -5.37894,1.72926 -1.814473,0.53123 -4.428005,1.0135 -7.30907,1.98183 -3.051419,1.36077 -8.118588,3.24423 -11.878209,4.77565 -0.526667,0.36 -1.006667,0.41333 -1.44,0.16 -0.347257,-0.19841 -0.917227,-1.04228 -0.688098,-1.37008 2.313333,-3.34 5.184759,-6.61439 8.044759,-9.38106 1.426244,-0.74788 1.770214,-2.51155 2.876678,-3.29443 1.068918,-0.24936 1.628484,-0.5485 2.43,-1.03 z"
       id="path151"
       sodipodi:nodetypes="cczccccccc" />
  </g>
  <g
     inkscape:groupmode="layer"
     id="layer4"
     inkscape:label="Aspect ratio"
     transform="translate(0.06203284)" />
  <g
     inkscape:groupmode="layer"
     id="layer2"
     inkscape:label="Line"
     style="display:none"
     transform="translate(-0.93798216,-0.99951224)">
    <path
       id="path154"
       style="display:inline"
       d="m 74.916016,494.67188 c -4.049317,-0.22157 -7.973728,-0.35302 -11.900391,0.82031 -0.02598,0.0189 -0.02046,0.0594 0.0098,0.0703 3.653329,0.21333 6.810705,0.49938 9.470703,0.85938 3.049881,0.36912 9.44109,0.39892 17.067708,0.85287 5.18963,0.11657 9.560042,0.56141 18.048454,0.98185 7.19151,0.3562 13.41726,1.06142 20.1729,1.26258 0.2607,0.003 27.9717,1.43587 20.06392,1.14067 l 20.05912,0.31784 c 3.62111,0.24666 7.88137,0.10752 10.84766,0.13323 l 22.5293,0.39647 c 1.51478,0.14743 8.70646,0.39672 15.05664,0.48633 8.44984,0.16383 17.24918,0.14533 28.70312,0.32815 13.49497,0.25389 26.81118,-0.20276 40.20117,0.26951 l 28.61914,0.28125 c 8.52667,-0.29333 14.60148,-0.0199 21.39096,-0.0573 8.75181,0.32631 17.26521,0.0917 26.07975,-0.0539 5.58469,-0.35957 11.29637,0.0736 16.94922,-0.01 17.94847,-0.15002 44.13726,-1.21806 54.06247,-1.40629 9.60947,0.5097 18.96841,-0.37293 28.56839,-0.79293 0.46753,-0.0169 2.38809,0.0257 15.76115,-0.18661 11.92998,-0.27 18.40898,-0.69108 30.04894,-1.41108 12.55998,-0.78 20.54318,-1.96168 33.10983,-2.76168 0.0267,0 0.0391,0.0124 0.0391,0.0391 0.0133,0.19333 0.0104,0.15419 -0.01,-0.11914 4e-4,-0.0429 -0.0376,-0.0763 -0.0801,-0.0703 -4.63,0.54 -9.69049,0.0691 -13.73047,0.28906 -28.57994,1.56 -57.18197,2.29764 -85.8086,2.21094 -6.54685,-0.0304 -20.21039,0.68261 -51,1.27929 -56.24655,0.0933 -111.57977,-0.11048 -167.833,-0.20378 -3.33651,0.001 -17.3264,-0.0193 -19.93262,-0.56964 -3.50149,0.0842 -6.49454,0.0955 -9.71875,-0.18164 -13.72579,-0.26122 -27.69802,-0.90684 -41.5392,-0.85533 l -21.84947,-0.53331 c -11.39907,-0.31937 -22.09987,-0.9741 -32.328124,-1.65625 -7.026005,-0.13466 -13.378484,-0.64788 -21.12872,-1.14991 z"
       sodipodi:nodetypes="cccccsccccccccccccccccccccccccccccccc" />
  </g>
  <g
     inkscape:groupmode="layer"
     id="layer1"
     inkscape:label="Controls"
     style="display:none"
     transform="translate(-0.93798216,-0.99951224)">
    <rect
       fill="#646464"
       x="334.93802"
       y="512.11719"
       transform="rotate(0.8)"
       width="8.4200001"
       height="1.3"
       rx="0.56999999"
       id="rect190"
       ry="0.56999999" />
    <path
       fill="#7f7f7f"
       d="m 460.55562,513.59243 q 0.6,1.79 0.05,3.54 a 0.42,0.42 0 0 1 -0.82,-0.14 l 0.09,-3.29 a 0.35,0.35 0 0 1 0.68,-0.11 z"
       id="path184" />
    <path
       fill="#7f7f7f"
       d="m 387.74562,514.52243 -0.79,0.76 q -0.21,0.14 -0.46,0.11 -0.52,-0.06 -0.4,-0.58 0.45,-1.86 1.65,-0.29 z"
       id="path185" />
    <path
       fill="#7f7f7f"
       d="m 315.84562,516.82243 q -0.35,1 0.17,1 -4.18,0.21 -7.77,0.2 -1.2,-0.01 -1.73,-0.87 0.57,0.2 0.52,-0.36 l 8.51,-0.36 a 0.24,0.25 68.8 0 1 0.21,0.09 q 0.09,0.13 0.09,0.3 z"
       id="path186" />
    <path
       fill="#7f7f7f"
       d="m 318.79562,513.23243 a 0.55,0.55 0 0 1 1.08,0.05 q 0.12,0.66 -0.41,1.01 a 0.52,0.52 0 0 1 -0.8,-0.57 z"
       id="path183" />
    <ellipse
       fill="#7f7f7f"
       cx="32.41795"
       cy="626.67395"
       transform="rotate(-32.1)"
       rx="0.81"
       ry="0.54000002"
       id="ellipse183" />
    <ellipse
       fill="#7f7f7f"
       cx="15.376706"
       cy="615.24255"
       transform="rotate(-32.1)"
       rx="0.81"
       ry="0.54000002"
       id="ellipse183-6" />
    <path
       fill="#646464"
       d="m 356.88562,517.82243 a 0.17,0.17 0 0 1 -0.17,0.17 l -0.33,0.02 a 0.64,7.42 87.5 0 1 -7.44,-0.32 l -0.01,-0.4 a 0.64,7.42 87.5 0 1 7.38,-0.96 l 0.33,-0.01 a 0.17,0.17 0 0 1 0.18,0.16 z"
       id="path187" />
    <path
       fill="#515151"
       d="m 368.77562,516.55243 a 0.29,0.29 0 0 1 0.29,-0.29 l 5.49,-0.08 a 0.72,3.06 89.2 0 1 3.07,0.68 v 0.46 a 0.72,3.06 89.2 0 1 -3.05,0.76 l -5.49,0.08 a 0.29,0.29 0 0 1 -0.29,-0.29 z"
       id="path188" />
    <path
       fill="#646464"
       d="m 286.06562,518.17243 q -0.53,-0.68 -0.06,-1.53 3.95,-0.31 8.27,0.12 0.6,0.06 0.82,0.31 0.17,0.19 0.2,0.46 0.08,0.54 -0.47,0.54 z"
       id="path189" />
    <path
       fill="#646464"
       d="m 268.12562,516.73243 2.62,-0.06 2.61,0.05 a 0.52,0.52 0 0 1 0.51,0.52 q 0,0.15 0,0.31 a 0.24,0.24 0 0 1 -0.23,0.24 l -8.4,0.3 a 0.58,0.57 27.8 0 1 -0.33,-1.06 q 1.02,-0.65 3.22,-0.3 z"
       id="path190" />
    <path
       fill="#646464"
       d="m 364.31562,507.86243 q 0.38,0.29 0.54,0.74 a 0.4,0.4 0 0 1 -0.39,0.54 l -2.93,-0.11 q -0.59,-0.02 -0.48,-0.6 0.31,-1.52 1.59,-2.24 0.67,-0.38 0.93,0.34 l 0.24,0.66 q 0.15,0.4 0.5,0.67 z"
       id="path171" />
    <path
       fill="#1d1d1d"
       d="m 286.00562,516.64243 q -0.47,0.85 0.06,1.53 l -3.7,3.63 q -0.32,0.31 -0.76,0.28 -5.45,-0.47 -6.89,-5.45 -0.14,-0.47 -0.63,-0.41 l -3.34,0.45 -2.62,0.06 q -0.9,-0.39 -1.2,-0.79 a 0.48,0.49 67.2 0 1 0.32,-0.77 l 8.39,-1.17 q 0.64,-0.09 0.85,0.51 l 0.46,1.29 q 0.21,0.61 0.68,0.16 1.06,-1.02 1.12,-2.16 l 0.38,-0.87 q 0.2,-0.44 -0.14,-0.78 l -0.42,-0.42 q 1.1,-1.62 3.39,0.2 2.03,1.6 4.05,4.71 z"
       id="path175" />
    <path
       fill="#1d1d1d"
       d="m 307.03562,516.79243 q 0.05,0.56 -0.52,0.36 l -1.06,3.03 a 1.32,1.29 86.1 0 1 -0.63,0.74 q -4.91,2.65 -8.68,-1.37 -0.3,-0.33 -0.31,-0.77 l -0.18,-5.3 q -0.02,-0.68 0.66,-0.82 l 0.83,-0.16 q 0.54,-0.1 0.53,0.45 l -0.04,2.12 a 0.45,0.45 0 0 0 0.78,0.31 q 0.32,-0.36 0.32,-1.22 1.33,-0.29 1.03,-1.44 0.05,-0.52 -0.96,-0.48 -0.55,0.03 -0.43,-0.52 0.05,-0.22 0.28,-0.4 0.18,-0.14 0.49,-0.16 1.64,-0.1 3.35,0 0.42,0.02 0.72,0.32 l 3.37,3.46 a 0.96,0.95 66.6 0 0 0.73,0.29 l 6.54,-0.25 q 0.48,-0.02 0.44,0.45 -0.06,0.82 -1.06,0.95 -1.43,0.17 -6.11,0.08 -0.14,0 -0.15,0.15 -0.02,0.61 0.06,0.18 z"
       id="path176" />
    <path
       fill="#1d1d1d"
       d="m 316.01562,517.82243 q -0.52,0 -0.17,-1 0.78,-1.08 0.47,-2.64 a 1.2,1.23 60 0 1 0.29,-1.03 q 2.99,-3.35 7.1,-1.38 a 1.01,1.02 1.5 0 1 0.52,0.55 q 0.58,1.39 1.86,2.41 a 3.42,3.42 0 0 1 0.7,4.58 c -2.13,3.15 -7.14,3.96 -9.51,0.37 q -0.67,-1.01 -1.26,-1.86 z m 2.78,-4.59 -0.13,0.49 a 0.52,0.52 0 0 0 0.8,0.57 q 0.53,-0.35 0.41,-1.01 a 0.55,0.55 0 0 0 -1.08,-0.05 z"
       id="path177" />
    <path
       fill="#515151"
       d="m 278.56562,511.73243 0.42,0.42 q 0.34,0.34 0.14,0.78 l -0.38,0.87 q -2.4,0.06 -0.18,-2.07 z"
       id="path178" />
    <path
       fill="#7f7f7f"
       d="m 459.15562,512.91243 q -0.29,-0.12 -0.29,-0.66 1.96,-0.56 3.34,0.16 c 4.55,2.39 -1.98,10.09 -4.65,4.82 q -0.43,-0.86 0.31,-0.26 l 1.29,1.03 a 1.62,1.62 0 0 0 1.87,0.1 c 3.46,-2.15 2.29,-6.07 -1.87,-5.19 z"
       id="path179"
       inkscape:label="path179" />
    <path
       fill="#1d1d1d"
       d="m 386.95562,515.28243 0.79,-0.76 q 0.87,-0.08 0,-1.36 a 0.58,0.58 0 0 1 0.69,-0.87 q 4.36,1.67 5.6,6.14 a 0.76,0.76 0 0 1 -0.24,0.77 l -3.06,2.63 q -0.45,0.4 -1.05,0.31 -5.33,-0.8 -4.7,-6.1 a 0.37,0.36 32.2 0 1 0.67,-0.15 q 0.11,0.18 0.38,0.36 0.27,0.18 0.48,0.11 0.45,-0.17 0.44,-1.08 z"
       id="path180" />
    <path
       fill="#1d1d1d"
       d="m 360.79642,515.24885 0.79,-0.76 q 0.87,-0.08 0,-1.36 a 0.58,0.58 0 0 1 0.69,-0.87 q 4.36,1.67 5.6,6.14 a 0.76,0.76 0 0 1 -0.24,0.77 l -3.06,2.63 q -0.45,0.4 -1.05,0.31 -5.33,-0.8 -4.7,-6.1 a 0.37,0.36 32.2 0 1 0.67,-0.15 q 0.11,0.18 0.38,0.36 0.27,0.18 0.48,0.11 0.45,-0.17 0.44,-1.08 z"
       id="path180-6" />
    <path
       fill="#1d1d1d"
       d="m 340.51679,514.39923 0.79,-0.76 q 0.87,-0.08 0,-1.36 a 0.58,0.58 0 0 1 0.69,-0.87 q 4.36,1.67 5.6,6.14 a 0.76,0.76 0 0 1 -0.24,0.77 l -3.06,2.63 q -0.45,0.4 -1.05,0.31 -5.33,-0.8 -4.7,-6.1 a 0.37,0.36 32.2 0 1 0.67,-0.15 q 0.11,0.18 0.38,0.36 0.27,0.18 0.48,0.11 0.45,-0.17 0.44,-1.08 z"
       id="path180-6-3" />
    <path
       fill="#515151"
       d="m 458.86562,512.25243 q 0,0.54 0.29,0.66 -1.16,1.36 -1.62,3.39 a 0.2,0.2 0 0 1 -0.32,0.11 l -0.37,-0.27 q -0.33,-0.25 -0.11,-0.6 z"
       id="path181" />
    <path
       fill="#7f7f7f"
       d="m 299.76562,512.72243 q 0.3,1.15 -1.03,1.44 -0.45,0.06 -0.6,-0.05 a 0.63,0.63 0 0 1 -0.16,-0.88 q 0.82,-1.18 1.79,-0.51 z"
       id="path182" />
    <path
       fill="#3f3f3f"
       d="m 322.78562,507.58243 q 0.13,-0.63 0.02,-0.88 a 1.14,1 45.3 0 0 -2.02,-0.14 l -0.31,1.02 q -0.43,-1.08 0.45,-1.85 a 1.44,1.44 0 0 1 2.33,0.69 q 0.3,1.05 -0.47,1.16 z"
       id="path165" />
    <path
       fill="#7f7f7f"
       d="m 346.59562,506.55243 -0.1,0.98 q -0.04,0.38 -0.31,0.1 -0.35,-0.36 -0.17,-1.08 0.23,-0.9 0.99,-0.99 0.74,-0.08 0.15,0.38 l -0.39,0.3 q -0.15,0.12 -0.17,0.31 z"
       id="path166" />
    <path
       fill="#3f3f3f"
       d="m 300.05562,507.41243 q -0.27,-0.05 -0.5,-0.27 a 0.72,0.72 0 0 1 0.51,-1.24 l 1.81,0.06 a 0.88,0.88 0 0 1 0.37,1.66 q -0.64,0.32 -1.59,-0.08 a 0.72,0.02 10.4 0 0 -0.6,-0.13 z"
       id="path169" />
    <path
       fill="#313131"
       d="m 438.82562,507.22243 q -0.06,0.13 -0.21,0.18 -6.72,2.17 -8.86,8.91 a 0.91,0.91 0 0 1 -1.78,-0.34 q 0.51,-7.21 6.75,-10.52 c 2.46,-1.3 4.89,-1.15 7.39,-0.19 a 0.59,0.6 57.2 0 1 -0.25,1.15 q -1.49,-0.08 -2.82,0.59 -0.14,0.07 -0.22,0.22 z"
       id="path163" />
    <path
       fill="#3f3f3f"
       d="m 316.13562,508.86243 q 0.55,-1.48 0.01,-2.47 -0.23,-0.44 -0.72,-0.46 l -1.38,-0.08 q 0.21,-1.7 2.28,-1.08 0.48,0.15 0.64,0.63 0.88,2.71 -0.83,3.46 z"
       id="path164" />
    <ellipse
       fill="#515151"
       cx="489.00543"
       cy="-367.5065"
       transform="rotate(92.9)"
       rx="1.61"
       ry="1.33"
       id="ellipse164" />
    <path
       fill="#1d1d1d"
       d="m 443.51562,527.09243 q -0.63,0.53 -1.06,0.59 -8.29,1.2 -12.86,-4.32 -3,-3.61 -2.89,-8.25 0.12,-5.13 3.98,-8.59 2.82,-2.54 8.78,-4.13 a 1.56,1.6 48.3 0 1 0.92,0.04 c 2.39,0.84 5.07,1.34 6.91,2.91 q 2.11,1.8 3.29,4.44 3.43,7.68 -1.94,14.17 -1.83,2.22 -4.42,2.78 a 1.62,1.63 18.3 0 0 -0.71,0.36 z m -4.47,-20.09 q 1.33,-0.67 2.82,-0.59 a 0.59,0.6 57.2 0 0 0.25,-1.15 c -2.5,-0.96 -4.93,-1.11 -7.39,0.19 q -6.24,3.31 -6.75,10.52 a 0.91,0.91 0 0 0 1.78,0.34 q 2.14,-6.74 8.86,-8.91 0.15,-0.05 0.21,-0.18 0.08,-0.15 0.22,-0.22 z"
       id="path160" />
    <path
       fill="#515151"
       d="m 285.44562,507.65243 q 0.09,0.24 0.21,0.46 a 0.67,0.66 80.7 0 1 -0.7,0.98 l -4.97,-0.92 q -0.5,-0.1 -0.89,0.22 -1.93,1.58 -3.54,-0.83 -0.21,-0.31 -0.15,-0.68 0.09,-0.61 -0.32,-1.04 a 0.36,0.36 0 0 0 -0.61,0.13 l -0.87,2.61 a 0.57142366,0.57142366 0 0 1 -1.1,-0.31 l 0.8,-3.4 q 0.13,-0.56 0.71,-0.66 1.97,-0.33 3.35,0.95 a 0.88,0.87 51.2 0 0 1.04,0.12 q 2,-1.17 4.16,-0.36 0.54,0.2 1.06,-0.04 1.9,-0.87 3.22,0.99 0.24,0.35 -0.06,0.64 l -0.24,0.24 q -0.32,0.31 -0.56,-0.06 -0.58,-0.87 -1.64,-0.78 -0.6,0.06 -0.08,0.36 0.35,0.2 0.75,0.29 a 0.48,0.48 0 0 1 0.36,0.44 q 0,0.16 0,0.31 0,0.18 0.07,0.34 z"
       id="path162" />
    <path
       fill="#515151"
       d="m 322.78562,507.58243 q -0.1,0.81 -0.79,0.85 -1.37,0.09 -1.52,-0.85 l 0.31,-1.02 a 1.14,1 45.3 0 1 2.02,0.14 q 0.11,0.25 -0.02,0.88 z"
       id="path170"
       style="display:inline" />
  </g>
</svg>
