<?xml version="1.0" encoding="UTF-8" standalone="no"?>
<svg
   width="32.607658"
   height="27.595596"
   version="1.1"
   id="svg8"
   stroke="#000000"
   sodipodi:docname="teletext.svg"
   inkscape:version="1.3 (0e150ed, 2023-07-21)"
   viewBox="0 0 163.03831 137.978"
   xmlns:inkscape="http://www.inkscape.org/namespaces/inkscape"
   xmlns:sodipodi="http://sodipodi.sourceforge.net/DTD/sodipodi-0.dtd"
   xmlns="http://www.w3.org/2000/svg"
   xmlns:svg="http://www.w3.org/2000/svg">
  <defs
     id="defs8" />
  <sodipodi:namedview
     id="namedview8"
     pagecolor="#ffffff"
     bordercolor="#000000"
     borderopacity="0.25"
     inkscape:showpageshadow="2"
     inkscape:pageopacity="0.0"
     inkscape:pagecheckerboard="0"
     inkscape:deskcolor="#d1d1d1"
     inkscape:zoom="1.18"
     inkscape:cx="94.915254"
     inkscape:cy="-13.559322"
     inkscape:window-width="1344"
     inkscape:window-height="449"
     inkscape:window-x="0"
     inkscape:window-y="38"
     inkscape:window-maximized="0"
     inkscape:current-layer="svg8" />
  <g
     fill="none"
     stroke-width="5"
     id="g4"
     transform="translate(-18.4851,-31.012)">
    <path
       d="m 100.26,166.49 c -24.659,0 -49.032,-5.2883 -71.511,-15.523 -5.1594,-16.544 -7.7639,-33.751 -7.7639,-51.056 0,-17.336 2.6139,-34.573 7.7484,-51.113 22.313,-10.069 46.524,-15.286 71.015,-15.286 24.659,0 49.032,5.2883 71.511,15.523 5.1594,16.544 7.7639,33.751 7.7639,51.056 0,17.336 -2.6139,34.573 -7.7484,51.113 -22.313,10.069 -46.524,15.286 -71.015,15.286 z"
       id="path1" />
    <path
       d="m 36.649,66.736 h 126.69"
       id="path2" />
    <path
       d="m 36.649,99.999 h 126.69"
       id="path3" />
    <path
       d="m 36.649,133.26 h 126.69"
       id="path4" />
  </g>
</svg>
