<?xml version="1.0" encoding="UTF-8" standalone="no"?>
<svg
   version="1.1"
   viewBox="0 0 606.86023 554.92786"
   id="svg205"
   sodipodi:docname="frame.svg"
   inkscape:version="1.3 (0e150ed, 2023-07-21)"
   width="606.86023"
   height="554.92786"
   xmlns:inkscape="http://www.inkscape.org/namespaces/inkscape"
   xmlns:sodipodi="http://sodipodi.sourceforge.net/DTD/sodipodi-0.dtd"
   xmlns="http://www.w3.org/2000/svg"
   xmlns:svg="http://www.w3.org/2000/svg">
  <defs
     id="defs205" />
  <sodipodi:namedview
     id="namedview205"
     inkscape:showpageshadow="2"
     inkscape:pageopacity="0.0"
     inkscape:pagecheckerboard="true"
     inkscape:deskcolor="#d1d1d1"
     inkscape:zoom="11.188799"
     inkscape:cx="23.952526"
     inkscape:cy="284.97249"
     inkscape:window-width="1504"
     inkscape:window-height="892"
     inkscape:window-x="0"
     inkscape:window-y="38"
     inkscape:window-maximized="0"
     inkscape:current-layer="svg205"
     bordercolor="#000000"
     borderopacity="0.25"
     showgrid="false"
     showguides="true"
     pagecolor="#ffffff">
    <sodipodi:guide
       position="4.5336103e-07,7.1804616"
       orientation="0,-1"
       id="guide1"
       inkscape:locked="false" />
  </sodipodi:namedview>
  <path
     id="path32"
     style="display:inline;fill:#515151;fill-opacity:1"
     d="m 415.01415,33.959524 c -66.67982,-0.08333 -133.37109,1.96707 -200.07422,6.150391 -23.84658,1.226662 -47.57002,3.289465 -71.16992,6.189453 -9.87998,1.386664 -19.71956,2.779691 -29.51954,4.179688 -4.37999,0.626666 -7.70404,2.040238 -9.9707,4.240234 -1.72095,2.0787 -2.2994,2.771804 -4.434016,7.275061 -0.515753,3.255649 -0.693299,8.108778 -0.776923,9.882981 -1.175485,37.378178 -1.424723,45.949708 -1.70644,55.614138 -0.09458,4.09581 -0.10514,4.9451 -0.16514,6.6151 -0.49333,14.81997 -0.385216,16.40989 -0.691203,31.06978 -0.240088,10.70191 1.63137,23.95346 2.28137,33.14344 0.44667,6.24667 -0.617928,8.71044 -0.157928,14.95711 1.91482,9.81327 3.31271,19.19314 5.6855,28.95939 1.50999,5.75 -0.33499,28.21372 0.53501,33.39371 4.77444,11.08983 6.15084,15.42209 11.5654,28.74757 0.70667,1.50667 8.56843,-3.59992 8.52843,-1.83992 -0.0439,1.29845 1.93897,1.65507 1.67578,3.22266 1.03343,0.6546 0.62294,-1.58783 1.36133,-2.08008 0.22667,-7.16 0.36659,-14.33287 0.41992,-21.51953 0,-0.0333 0.7342,-4.39166 0.46087,-12.72499 -0.14,-4.33331 0.32161,-9.5436 0.68825,-15.28358 0.53333,-8.42665 -0.57602,-26.31592 -0.88935,-54.36253 -0.0232,1.92759 -0.0803,6.63965 0.17969,-16.32031 0.47746,-12.31984 1.45442,-24.71367 1.3457,-36.92773 -0.0111,-0.028 -0.0275,-0.0469 -0.0391,-0.0742 2.28658,-3.13324 3.81333,-14.97041 2.35547,-45.28711 -0.0335,-5.400215 -0.17194,-11.060879 0.95703,-14.664065 l 4.55078,-2.265625 c 32.6132,-2.939988 64.75545,-3.193268 97.462,-4.906594 42.57984,-2.226659 86.5554,-4.185452 129.16188,-4.838781 20.60569,-0.148966 40.62504,-1.273666 61.17104,-1.985094 15.50997,0.22 28.3749,1.696719 43.46485,2.136719 39.76657,1.166664 79.75426,3.404693 119.49414,5.304687 2.73997,0.13 5.59992,0.559922 8.16992,0.669922 7.52664,0.326667 15.04104,0.856514 22.54101,1.589844 6.41333,0.63333 12.62227,1.082945 18.62891,1.349609 6.03997,0.273333 12.4934,-1.688307 18.88672,-1.18164 l -0.91406,1.296875 c 0.0333,0.346665 -0.0829,0.634661 -0.34961,0.861328 -0.95333,0.819997 -1.61568,1.404326 -1.90235,2.097656 -1.63333,3.859988 -3.02964,7.503028 -6.04297,10.429688 -0.27,0.849997 -0.32953,0.51823 -0.26953,0.851562 0.29333,1.626662 0.27464,3.144379 -0.33203,4.484379 l 1.91016,2.56836 c 0.48667,-3.74666 1.55565,-6.908292 3.20898,-9.488286 1.06,-1.659994 1.82435,-3.094117 2.29102,-4.300781 0.88667,-2.286661 1.95565,-4.497532 3.20898,-6.630859 0.16481,-0.273818 0.53654,-0.334474 0.78125,-0.128907 0.76,0.62 1.11701,1.659145 1.07031,3.119141 l 0.21875,12.660152 c 0.79098,2.25542 1.3836,14.62259 1.57227,6.64844 0.33401,-0.16423 0.3435,-0.37797 0.91797,-0.24805 1.71333,0.48 2.1712,3.99985 3.64453,5.83985 3.04291,3.77931 31.26821,26.27002 30.08117,-12.521337 -0.0992,-2.974275 -0.74024,-21.436588 -1.47429,-35.854966 -0.0449,-0.539084 -0.17603,-2.112909 -0.22016,-2.633464 -0.15546,-1.575163 -0.48311,-2.593818 -0.73047,-3.550781 -2.41333,-5.739984 -6.46683,-9.035342 -12.16016,-9.888672 -10.65997,-1.606663 -26.1806,-3.496595 -46.56054,-5.669922 -6.60667,-0.706664 -13.2466,-1.280704 -19.91992,-1.720703 C 548.36351,36.259948 481.6939,34.042877 415.01411,33.959544 Z"
     sodipodi:nodetypes="scccccccccccccccccccccccccccccccccccccccccccccccccccccccccccss"
     transform="translate(-94.254381,-32.957571)" />
  <path
     fill="#3f3f3f"
     d="m 9.4793925,129.43971 c 2.5761445,7.51629 2.7460355,19.57272 4.6752385,28.87901 1.275952,6.13126 1.590478,12.59095 2.639203,21.18212 1.048725,8.59116 3.280752,17.65502 4.681785,27.42159 1.51,5.75 1.88,12.28 2.75,17.46 1.286667,7.64667 0.555814,17.20627 1.83,23.14 0.76205,3.9577 -0.08859,4.88623 2.15,12.71 0.947148,2.82262 2.456657,6.73064 3.35,10.24 0.717117,1.51914 1.118506,1.01398 1.93,0.41 1.075615,16.90576 1.312014,19.34481 0.818359,26.13301 -5.013218,2.34541 -19.795616,0.1544 -23.626486,-16.10363 -0.286667,-1.41333 -0.7759842,-3.88955 -2.1499996,-7.17 C 5.8207956,262.07047 5.4485946,267.67312 4.5104592,261.41842 9.4836055,246.83559 7.6353425,234.76935 6.8917209,220.30699 5.8454757,179.36194 3.8289227,194.31662 4.5117224,172.46704 c 0.07,-1.9 -3.0351584,-4.1557 -2.9451584,-6.0657 0.6085561,-8.99847 0.2664083,-12.45986 0.3421265,-17.80007 0.014923,-1.05247 0.3703076,-1.86895 0.029041,-2.04821 0.033817,-1.68823 0.1657991,-8.13682 0.2212666,-10.78687 0.057481,-2.71264 0.3195468,-12.70299 0.3241519,-14.9121 2.5228494,-10.67957 4.4200975,1.06933 6.9962425,8.58562 z"
     id="path140"
     sodipodi:nodetypes="zczcccccccccccccccccz"
     style="display:inline" />
  <path
     fill="#3f3f3f"
     d="m 600.72562,35.542429 c 4.72667,127.073331 6.19,249.670001 4.39,367.790001 l -0.0474,2.54193 c -0.095,5.06444 -0.35052,8.43892 -0.19246,10.2068 l -2.46288,-2.86469 c -0.67693,0.87594 -1.58045,1.92973 -2.48,2.71 -3.9,1.71333 -7.61396,2.35263 -10.70729,5.28596 -0.61333,0.58667 -1.33,1.56 -2.15,2.92 -0.64,1.06 -1.39667,2.02667 -2.27,2.9 -4.29426,12.78067 -11.76393,23.60825 -16.71614,25.7626 2.7189,1.99386 -2.67866,2.64638 -4.31,0.29 -4.65333,0.27333 -9.3,0.64 -13.94,1.1 -0.7,0.0667 -4.86682,-0.49134 -9.59349,0.22199 -8.54,1.29 -17.92037,0.0217 -26.73037,0.82171 -6.13333,0.56 -12.28333,0.83 -18.45,0.81 -2.49,0 -4.96,0.72 -7.43,0.72 -4.08,0 -8.14667,0.16 -12.2,0.48 -4.04,0.32 -7.87,0.14 -11.77,-0.02 -9.31,-0.4 -18.27493,2.34034 -27.56493,1.87034 -9.94667,-0.50667 -21.02274,-1.58724 -30.97607,-2.04057 -0.32667,-0.0133 -0.58333,-0.15667 -0.77,-0.43 -1.62,-2.35 -3.239,-1.08607 -5.349,-3.31607 23.94667,-0.88667 47.86333,-2.09667 71.75,-3.63 5.48667,-0.35333 12.13,-0.95 19.93,-1.79 17.99333,-1.93333 36.01333,-3.30333 54.06,-4.11 1.28667,0.0667 3.04923,-0.0645 4.32256,0.0355 3.29,0.24 5.71,-0.98 9.32,0.42 0.37533,-0.64342 2.70097,0.37506 2.70097,0.37506 0.71,-0.52243 -1.27765,-0.15331 -1.41976,-4.71699 0,0 -0.27048,-6.61128 -0.16374,-6.7536 1.01333,-15.98667 2.25,-32.03 3.71,-48.13 3.83,-42.21 4.22,-84.95 3.92,-127.31 -0.04,-6.65 0.31,-13.74 0.41,-20.6 -0.21333,-3.56 0.0933,-6.96333 0.92,-10.21 0.56667,-2.26 0.85667,-4.18333 0.87,-5.77 0.04,-7.83 0.27,-15.68 0.08,-23.42 -0.36,-14.32667 -2.05753,-28.81441 -2.1842,-43.14108 -0.1,-10.37 -2.51719,-21.43735 -2.67719,-32.34735 -0.22,-14.37 0.47726,-29.940001 0.80726,-45.000001 0.074,-0.626018 1.24768,-3.312393 1.85956,-3.591728 0.23928,-0.159543 0.65124,-0.01984 0.88457,0.04016 1.71333,0.48 4.01244,-0.418504 6.8385,-1.813296 11.31685,-7.016585 9.39406,-9.806003 14.7915,-17.216704 2.46001,-3.346008 7.26356,-14.951094 7.41,-16.19 1.29816,-3.406738 1.36801,-6.408193 2.24,-8.87 0.30667,-0.406667 0.41639,-0.384781 0.75178,-1.080387 z"
     id="path141"
     sodipodi:nodetypes="cccccccccccccccsccccccccccccccccccccccccccccccc"
     style="display:inline" />
  <path
     fill="#1d1d1d"
     d="m 328.99562,39.562429 c 15.51,0.22 31.4,0.05 46.49,0.49 39.76667,1.166666 79.52,2.7 119.26,4.6 2.74,0.13 5.6,0.56 8.17,0.67 7.52667,0.326666 15.04,0.856666 22.54,1.59 6.41333,0.633333 12.62333,1.083333 18.63,1.35 6.04,0.273333 12.25667,0.663333 18.65,1.17 -1.97333,2.846666 -3.97055,5.494448 -6.46388,7.754448 -0.22,0.193333 -0.98,1.023333 -2.28,2.49 -0.8,0.906667 -1.77667,1.603333 -2.93,2.09 -0.31333,0.126667 -0.53667,0.35 -0.67,0.67 l -1.43,3.37 c -3.4,-1.6 -6.75279,-2.717782 -9.58612,-3.164448 -24.02667,-3.773334 -49.25667,-7.12 -75.69,-10.04 -6.56,-0.726667 -13.19667,-1.37 -19.91,-1.93 -37.70667,-3.126667 -75.47,-5.266667 -113.29,-6.42 -17,-0.51 -34.49,0.05 -51.73,0.07 -6.98667,0.0067 -13.65667,0.143333 -20.01,0.41 -29.32667,1.253333 -48.24333,2.116666 -56.75,2.59 -25.70667,1.446666 -54.19667,4.383333 -85.47,8.81 -15.02,2.126666 -30.040001,4.273333 -45.060001,6.44 -13.14,1.9 -21.74,5.59 -23.37,20.24 -4.78,42.940001 -8.98,81.400001 -9.36,118.730001 -0.24,22.95 -1.74,43.34 -0.94,68.76 0.7,21.93 0.18,45.4 1.83,64.91 2.526667,29.96 5.06,59.91667 7.6,89.87 -0.236572,3.91936 0.130692,6.83617 0.184025,8.74284 0.01333,0.32667 0.16,0.67333 0.44,1.04 0.186667,0.24 0.22,0.5 0.1,0.78 -1.993333,4.60667 -6.625462,11.34932 -10.245462,14.96265 -0.962089,0.96693 -3.357929,-2.00027 -3.326359,-3.36393 0.08,-4.91333 -0.01333,-9.82333 -0.28,-14.73 -0.346666,-6.24 -0.523333,-11.11667 -0.53,-14.63 -0.02,-14.06 -0.176666,-28.12 -0.47,-42.18 -0.36,-17.64 1.034678,-35.11 0.844678,-52.68 0,-0.04 0.116667,-2.24667 0.35,-6.62 0.106667,-2.03333 0.03,-4.35 -0.23,-6.95 -0.566666,-5.63333 -0.513333,-14.34667 0.16,-26.14 0.07333,-1.23333 -0.332249,-3.34116 -0.399992,-5.05503 -0.09623,-2.72876 -0.320355,-5.38997 -0.39436,-8.43118 -0.134253,-6.91938 0.467048,-12.60004 0.236243,-19.7832 -0.120307,-3.04097 0.344561,-5.05882 0.07123,-13.39215 -0.14,-4.33333 0.141908,-8.99754 0.09939,-14.74908 -0.0682,-8.54698 0.883947,-27.02425 0.570613,-55.07092 l 0.18,-16.32 0.76,-19.61 2.12,-62.680001 c 0.186667,-3.893334 0.39,-7.58 0.61,-11.06 0.226667,-3.586667 2.12,-5.543334 5.68,-5.87 32.613334,-2.94 65.273335,-5.266667 97.980005,-6.98 42.58,-2.226667 85.17333,-3.666667 127.78,-4.32 z"
     id="path142"
     style="display:inline"
     sodipodi:nodetypes="cccccccccccccccccccccccccccccccccccccccccccccccccccc" />
  <path
     fill="#3f3f3f"
     d="m 562.73562,49.432429 0.11,1.41 q 0.05,0.52 -0.35,0.86 -1.43,1.23 -1.86,2.27 -2.45,5.79 -6.97,10.18 -0.36,0.35 -0.27,0.85 0.44,2.44 -0.47,4.45 l -4.2,-3.74 1.43,-3.37 q 0.2,-0.48 0.67,-0.67 1.73,-0.73 2.93,-2.09 1.95,-2.2 2.28,-2.49 3.74,-3.39 6.7,-7.66 z"
     id="path144"
     style="display:inline;fill:#515151;fill-opacity:1" />
  <path
     id="path145"
     style="display:inline;fill:#646464;fill-opacity:1"
     d="M 564.01562 51.351562 C 563.83286 51.343531 563.64793 51.430425 563.54492 51.601562 C 562.29159 53.734893 560.91206 55.807085 560.02539 58.09375 C 559.55872 59.300416 558.79437 60.734533 557.73438 62.394531 C 556.08105 64.974529 555.32261 68.274821 554.83594 72.021484 C 556.22927 76.448147 557.00602 79.37297 557.16602 80.792969 C 557.65935 85.032965 558.13261 89.309718 558.58594 93.623047 C 563.3926 141.27633 566.37826 189.09851 567.54492 237.0918 C 567.33159 233.5318 567.63818 230.12948 568.46484 226.88281 C 569.03151 224.62281 569.3226 222.69995 569.33594 221.11328 C 569.37594 213.28329 569.60602 205.43335 569.41602 197.69336 C 569.05602 183.36671 568.81221 169.03954 568.68555 154.71289 C 568.58555 144.3429 567.94516 132.95296 567.78516 122.04297 C 567.56516 107.67298 566.48641 92.102954 566.81641 77.042969 C 566.74307 76.989635 566.66875 76.956979 566.59375 76.945312 C 566.51875 76.933646 566.4419 76.942656 566.36523 76.972656 C 566.21857 77.03599 566.1082 77.122708 566.0332 77.234375 C 565.9582 77.346042 565.91935 77.482578 565.91602 77.642578 C 565.91935 77.482578 565.9582 77.346042 566.0332 77.234375 C 566.1082 77.122708 566.21857 77.03599 566.36523 76.972656 C 566.4419 76.942656 566.51875 76.933646 566.59375 76.945312 C 566.66875 76.956979 566.74307 76.989635 566.81641 77.042969 C 567.07641 73.302972 567.11859 70.187055 566.05859 67.400391 C 565.94859 61.070397 566.09437 59.441792 565.98438 54.591797 C 566.03104 53.131798 565.08617 52.092656 564.32617 51.472656 C 564.23441 51.395568 564.12529 51.356381 564.01562 51.351562 z " />
  <path
     fill="#313131"
     d="m 1.9377319,146.55306 c 0.6170431,-5.89452 1.8828491,-1.29612 3.4478886,2.20937 1.7584461,6.66461 1.7263663,8.69812 1.88,16.27 -0.09,1.91 0.7,3.78 0.63,5.68 -0.692525,22.16043 1.497094,23.35635 2.3799985,45.96 0.04,1.38667 0.32333,4.45 0.85,9.19 0.34,3.02667 0.957153,6.35225 1.40436,9.37039 0.783432,5.2552 1.521647,15.713 1.521647,15.713 1.990124,9.82305 1.76542,8.67132 3.83023,18.42034 0.63966,3.49859 1.86333,5.75667 2.15,7.17 1.678341,4.16295 3.354656,7.52246 4.686562,11.93547 5.302238,9.62103 6.746803,6.42777 7.153763,-1.62373 0,0 -0.01176,-3.75205 1.16598,-6.40736 1.462943,-2.2664 1.265866,2.73505 1.253155,3.9705 -0.0931,11.7353 0.02763,18.99806 0.594303,24.63139 0.26,2.6 0.33667,4.91667 0.23,6.95 -0.23333,4.37333 -0.35,6.58 -0.35,6.62 0.19,17.57 0.03,35.04 0.39,52.68 0.29333,14.06 0.45,28.12 0.47,42.18 0.007,3.51333 0.18333,8.39 0.53,14.63 0.26667,4.90667 0.36,9.81667 0.28,14.73 -0.0316,1.36366 1.61791,2.06693 2.58,1.1 3.62,-3.61333 6.095093,-7.65701 8.088423,-12.26368 0.309758,-0.72277 -0.171873,-0.99062 -0.208423,-1.88632 -0.0533,-1.90667 0.0567,-4.80667 0.33,-8.7 0.20667,4.41333 1.48333,8.35333 3.83,11.82 -0.15333,0.74667 -0.786553,1.35517 -2.253223,1.29517 -0.53386,0.92545 -0.125767,0.88248 -2.686777,3.33483 -2.86,2.76667 -5.44667,5.82 -7.76,9.16 -0.22913,0.3278 -0.12726,0.78159 0.22,0.98 0.43333,0.25333 0.91333,0.2 1.44,-0.16 3.93,-2.69 5.867034,-1.61842 10.227034,-5.10842 0.30825,-0.25054 2.798615,-1.49504 3.196305,-1.46271 1.24667,0.1 2.179991,0.40446 3.166661,-0.30887 0.19309,-0.14142 0.43204,-0.20562 0.67,-0.18 0.244453,-0.61113 3.32,0.39 3.32,0.39 0.907717,-0.56096 1.800662,-1.40213 5.41,-1.21 22.42,1.70667 44.843331,3.54667 67.270001,5.52 18.88,1.66 38.02,2.12 56.99,3.51 6.93333,0.5 13.59333,0.82 19.98,0.96 28.94,0.64 57.96,2.69 86.92,2.17 33.96667,-0.60667 67.91333,-1.43667 101.84,-2.49 2.11,2.23 4.78,-0.16 6.4,2.19 0.18667,0.27333 0.44333,0.41667 0.77,0.43 9.95333,0.45333 19.90333,0.93333 29.85,1.44 9.29,0.47 18.33,-1.45 27.64,-1.05 3.9,0.16 7.73,0.34 11.77,0.02 4.05333,-0.32 8.12,-0.48 12.2,-0.48 2.47,0 4.94,-0.72 7.43,-0.72 6.16667,0.02 12.31667,-0.25 18.45,-0.81 8.81,-0.8 17.65,0.51 26.19,-0.78 4.72667,-0.71333 7.44,-1.10333 8.14,-1.17 4.64,-0.46 9.28667,-0.82667 13.94,-1.1 2.71113,-0.29 4.66749,-1.99251 5.51,-3.21 7.40927,-6.26261 18.14209,-23.22674 21.93,-26.85 3.09333,-2.93333 6.59,-5.25667 10.49,-6.97 0.31333,-0.14 0.53667,-0.36667 0.67,-0.68 0.24,-0.6 0.67333,-1.02667 1.3,-1.28 0.33333,-0.14 0.50333,-0.39 0.51,-0.75 1.506,-1.03018 2.68814,-2.34149 2.73929,-0.98097 -0.65333,35.15333 -1.19262,63.0843 -1.97929,98.23097 -0.21,9.68 0.14,16.4 -7.28,21.46 -2.12667,1.44667 -5.37,2.54 -9.73,3.28 -5.06667,0.86 -10.20333,1.58 -15.41,2.16 -14.59333,-0.16 -29.19333,0 -43.8,0.48 -19.84,0.65 -39.67,0.53 -59.49,0.66 -34.02811,0.71677 -68.14739,2.52248 -102.15,2.1 -37.87814,-0.0272 -75.72081,1.5967 -113.58,0.03 -3.84271,-0.16337 -76.77576,0.86702 -82.12087,0.68397 -60.20903,-1.97262 -86.08592,-2.22519 -113.48592,-3.42019 -5.903757,-0.14342 -13.06596,-0.17585 -17.79961,-1.46143 -5.455615,-0.95818 -13.461554,-2.072 -19.533601,-3.28235 -5.06667,-0.7 -8.7233285,-3.34667 -10.9699985,-7.94 -0.99333,-2.03333 -1.58667,-5 -1.78,-8.9 -0.85,-17.31 -1.86,-34.55 -2.11,-52 -0.8,-55.02 -3.23000015,-116.1 -2.22,-175.59 0.45,-26.74 -0.58000015,-55.56 -0.49,-74.75 z"
     id="path148"
     sodipodi:nodetypes="cccccccccccccccccccccccccccccccccccccccccccccccsccccccccccccccsccccccccccccccc"
     style="display:inline" />
  <path
     fill="#515151"
     d="m 559.50562,433.13243 0.6,6.59 c 1.81172,3.03677 0.84287,2.25894 1.94911,4.4874 -1.35901,1.47358 -1.80911,1.2576 -3.58911,0.91259 -0.0556,-0.31052 -0.26809,-0.56857 -0.56,-0.68 -3.61,-1.4 -6.03,-0.18 -9.32,-0.42 -1.27333,-0.1 -2.55333,-0.18333 -3.84,-0.25 4.90667,-0.61333 8.68333,-2.16 11.33,-4.64 0.85333,-0.8 1.99667,-2.8 3.43,-6 z"
     id="path150"
     sodipodi:nodetypes="cccccccccc" />
  <path
     fill="#515151"
     d="m 51.055619,436.90243 c 3.746667,4.44667 8.73,6.69 14.95,6.73 -3.609497,-0.19207 -3.941568,0.79976 -5.41,1.21 -3.818782,0.80739 -6.004065,1.23159 -8.88513,2.19992 -3.051419,1.36077 -7.948209,2.08565 -11.878209,4.77565 -0.526667,0.36 -1.006667,0.41333 -1.44,0.16 -0.347257,-0.19841 -0.917227,-1.04228 -0.688098,-1.37008 2.313333,-3.34 5.184759,-6.61439 8.044759,-9.38106 1.426244,-0.74788 1.770214,-2.51155 2.876678,-3.29443 1.068918,-0.24936 1.628484,-0.5485 2.43,-1.03 z"
     id="path151"
     sodipodi:nodetypes="cccccccccc" />
  <path
     id="path154"
     style="display:inline"
     d="m 74.916016,494.67188 c -4.049317,-0.22157 -7.973728,-0.35302 -11.900391,0.82031 -0.02598,0.0189 -0.02046,0.0594 0.0098,0.0703 3.653329,0.21333 6.810705,0.49938 9.470703,0.85938 3.049881,0.36912 9.44109,0.39892 17.067708,0.85287 5.18963,0.11657 9.560042,0.56141 18.048454,0.98185 7.19151,0.3562 13.41726,1.06142 20.1729,1.26258 0.2607,0.003 27.9717,1.43587 20.06392,1.14067 l 20.05912,0.31784 c 3.62111,0.24666 7.88137,0.10752 10.84766,0.13323 l 22.5293,0.39647 c 1.51478,0.14743 8.70646,0.39672 15.05664,0.48633 8.44984,0.16383 17.24918,0.14533 28.70312,0.32815 13.49497,0.25389 26.81118,-0.20276 40.20117,0.26951 l 28.61914,0.28125 c 8.52667,-0.29333 14.60148,-0.0199 21.39096,-0.0573 8.75181,0.32631 17.26521,0.0917 26.07975,-0.0539 5.58469,-0.35957 11.29637,0.0736 16.94922,-0.01 17.94847,-0.15002 44.13726,-1.21806 54.06247,-1.40629 9.60947,0.5097 18.96841,-0.37293 28.56839,-0.79293 0.46753,-0.0169 2.38809,0.0257 15.76115,-0.18661 11.92998,-0.27 18.40898,-0.69108 30.04894,-1.41108 12.55998,-0.78 20.54318,-1.96168 33.10983,-2.76168 0.0267,0 0.0391,0.0124 0.0391,0.0391 0.0133,0.19333 0.0104,0.15419 -0.01,-0.11914 4e-4,-0.0429 -0.0376,-0.0763 -0.0801,-0.0703 -4.63,0.54 -9.69049,0.0691 -13.73047,0.28906 -28.57994,1.56 -57.18197,2.29764 -85.8086,2.21094 -6.54685,-0.0304 -20.21039,0.68261 -51,1.27929 -56.24655,0.0933 -111.57977,-0.11048 -167.833,-0.20378 -3.33651,0.001 -17.3264,-0.0193 -19.93262,-0.56964 -3.50149,0.0842 -6.49454,0.0955 -9.71875,-0.18164 -13.72579,-0.26122 -27.69802,-0.90684 -41.5392,-0.85533 l -21.84947,-0.53331 c -11.39907,-0.31937 -22.09987,-0.9741 -32.328124,-1.65625 -7.026005,-0.13466 -13.378484,-0.64788 -21.12872,-1.14991 z"
     sodipodi:nodetypes="cccccsccccccccccccccccccccccccccccccc" />
  <path
     fill="#1d1d1d"
     d="m 271.94732,537.29929 c 28.7561,0.45435 31.18191,0.56914 35.30146,0.52416 45.46467,-0.60786 76.97103,0.43181 83.71684,0.33898 11.74212,-0.4961 49.71397,-0.83571 60.3,-1.49011 28.20088,-1.73974 20.81941,0.12279 75.59002,-1.11 14.60667,-0.48 29.08665,-0.0399 43.67998,0.12011 l 1.55,11.75 c 0.0282,2.58312 0.505,7.14132 -0.775,7.10799 -4.73131,0.0314 -15.17997,-0.14199 -21.17997,0.17801 -29.82296,-0.17801 -39.75749,0 -65.00788,0.20943 -55.16557,-0.356 -72.21099,0 -83.62733,-0.38744 -649.36531,-1.31582 -196.65894,0.38744 -313.713007,0 11.205817,-0.018 8.730077,0.28675 -15.747844,0 H 36.021377 c -1.95,-0.13 -2.075758,-0.89799 -1.695758,-3.09799 0.48,-2.70667 1.26667,-5.31333 2.36,-7.82 1.05,-2.42 1.003601,-6.39765 1.423601,-8.86765 0,0 9.381103,0.5861 15.39774,0.70181 7.778832,0.16315 16.643409,-0.53734 68.35866,0.4058 16.00974,1.31375 32.07909,1.96475 48.14,2.58 33.84547,-0.5225 68.12004,-1.87124 101.9417,-1.1431 z"
     id="path191"
     sodipodi:nodetypes="ccccccccccccccccccccc"
     style="display:inline" />
  <g
     inkscape:groupmode="layer"
     id="layer1"
     inkscape:label="Controls"
     style="display:none">
    <rect
       fill="#646464"
       x="334.93802"
       y="512.11719"
       transform="rotate(0.8)"
       width="8.4200001"
       height="1.3"
       rx="0.56999999"
       id="rect190" />
    <path
       fill="#7f7f7f"
       d="m 460.55562,513.59243 q 0.6,1.79 0.05,3.54 a 0.42,0.42 0 0 1 -0.82,-0.14 l 0.09,-3.29 a 0.35,0.35 0 0 1 0.68,-0.11 z"
       id="path184" />
    <path
       fill="#7f7f7f"
       d="m 387.74562,514.52243 -0.79,0.76 q -0.21,0.14 -0.46,0.11 -0.52,-0.06 -0.4,-0.58 0.45,-1.86 1.65,-0.29 z"
       id="path185" />
    <path
       fill="#7f7f7f"
       d="m 315.84562,516.82243 q -0.35,1 0.17,1 -4.18,0.21 -7.77,0.2 -1.2,-0.01 -1.73,-0.87 0.57,0.2 0.52,-0.36 l 8.51,-0.36 a 0.24,0.25 68.8 0 1 0.21,0.09 q 0.09,0.13 0.09,0.3 z"
       id="path186" />
    <path
       fill="#7f7f7f"
       d="m 318.79562,513.23243 a 0.55,0.55 0 0 1 1.08,0.05 q 0.12,0.66 -0.41,1.01 a 0.52,0.52 0 0 1 -0.8,-0.57 z"
       id="path183" />
    <ellipse
       fill="#7f7f7f"
       cx="32.41795"
       cy="626.67395"
       transform="rotate(-32.1)"
       rx="0.81"
       ry="0.54000002"
       id="ellipse183" />
    <ellipse
       fill="#7f7f7f"
       cx="15.376706"
       cy="615.24255"
       transform="rotate(-32.1)"
       rx="0.81"
       ry="0.54000002"
       id="ellipse183-6" />
    <path
       fill="#646464"
       d="m 356.88562,517.82243 a 0.17,0.17 0 0 1 -0.17,0.17 l -0.33,0.02 a 0.64,7.42 87.5 0 1 -7.44,-0.32 l -0.01,-0.4 a 0.64,7.42 87.5 0 1 7.38,-0.96 l 0.33,-0.01 a 0.17,0.17 0 0 1 0.18,0.16 z"
       id="path187" />
    <path
       fill="#515151"
       d="m 368.77562,516.55243 a 0.29,0.29 0 0 1 0.29,-0.29 l 5.49,-0.08 a 0.72,3.06 89.2 0 1 3.07,0.68 v 0.46 a 0.72,3.06 89.2 0 1 -3.05,0.76 l -5.49,0.08 a 0.29,0.29 0 0 1 -0.29,-0.29 z"
       id="path188" />
    <path
       fill="#646464"
       d="m 286.06562,518.17243 q -0.53,-0.68 -0.06,-1.53 3.95,-0.31 8.27,0.12 0.6,0.06 0.82,0.31 0.17,0.19 0.2,0.46 0.08,0.54 -0.47,0.54 z"
       id="path189" />
    <path
       fill="#646464"
       d="m 268.12562,516.73243 2.62,-0.06 2.61,0.05 a 0.52,0.52 0 0 1 0.51,0.52 q 0,0.15 0,0.31 a 0.24,0.24 0 0 1 -0.23,0.24 l -8.4,0.3 a 0.58,0.57 27.8 0 1 -0.33,-1.06 q 1.02,-0.65 3.22,-0.3 z"
       id="path190" />
    <path
       fill="#646464"
       d="m 364.31562,507.86243 q 0.38,0.29 0.54,0.74 a 0.4,0.4 0 0 1 -0.39,0.54 l -2.93,-0.11 q -0.59,-0.02 -0.48,-0.6 0.31,-1.52 1.59,-2.24 0.67,-0.38 0.93,0.34 l 0.24,0.66 q 0.15,0.4 0.5,0.67 z"
       id="path171" />
    <path
       fill="#1d1d1d"
       d="m 286.00562,516.64243 q -0.47,0.85 0.06,1.53 l -3.7,3.63 q -0.32,0.31 -0.76,0.28 -5.45,-0.47 -6.89,-5.45 -0.14,-0.47 -0.63,-0.41 l -3.34,0.45 -2.62,0.06 q -0.9,-0.39 -1.2,-0.79 a 0.48,0.49 67.2 0 1 0.32,-0.77 l 8.39,-1.17 q 0.64,-0.09 0.85,0.51 l 0.46,1.29 q 0.21,0.61 0.68,0.16 1.06,-1.02 1.12,-2.16 l 0.38,-0.87 q 0.2,-0.44 -0.14,-0.78 l -0.42,-0.42 q 1.1,-1.62 3.39,0.2 2.03,1.6 4.05,4.71 z"
       id="path175" />
    <path
       fill="#1d1d1d"
       d="m 307.03562,516.79243 q 0.05,0.56 -0.52,0.36 l -1.06,3.03 a 1.32,1.29 86.1 0 1 -0.63,0.74 q -4.91,2.65 -8.68,-1.37 -0.3,-0.33 -0.31,-0.77 l -0.18,-5.3 q -0.02,-0.68 0.66,-0.82 l 0.83,-0.16 q 0.54,-0.1 0.53,0.45 l -0.04,2.12 a 0.45,0.45 0 0 0 0.78,0.31 q 0.32,-0.36 0.32,-1.22 1.33,-0.29 1.03,-1.44 0.05,-0.52 -0.96,-0.48 -0.55,0.03 -0.43,-0.52 0.05,-0.22 0.28,-0.4 0.18,-0.14 0.49,-0.16 1.64,-0.1 3.35,0 0.42,0.02 0.72,0.32 l 3.37,3.46 a 0.96,0.95 66.6 0 0 0.73,0.29 l 6.54,-0.25 q 0.48,-0.02 0.44,0.45 -0.06,0.82 -1.06,0.95 -1.43,0.17 -6.11,0.08 -0.14,0 -0.15,0.15 -0.02,0.61 0.06,0.18 z"
       id="path176" />
    <path
       fill="#1d1d1d"
       d="m 316.01562,517.82243 q -0.52,0 -0.17,-1 0.78,-1.08 0.47,-2.64 a 1.2,1.23 60 0 1 0.29,-1.03 q 2.99,-3.35 7.1,-1.38 a 1.01,1.02 1.5 0 1 0.52,0.55 q 0.58,1.39 1.86,2.41 a 3.42,3.42 0 0 1 0.7,4.58 c -2.13,3.15 -7.14,3.96 -9.51,0.37 q -0.67,-1.01 -1.26,-1.86 z m 2.78,-4.59 -0.13,0.49 a 0.52,0.52 0 0 0 0.8,0.57 q 0.53,-0.35 0.41,-1.01 a 0.55,0.55 0 0 0 -1.08,-0.05 z"
       id="path177" />
    <path
       fill="#515151"
       d="m 278.56562,511.73243 0.42,0.42 q 0.34,0.34 0.14,0.78 l -0.38,0.87 q -2.4,0.06 -0.18,-2.07 z"
       id="path178" />
    <path
       fill="#7f7f7f"
       d="m 459.15562,512.91243 q -0.29,-0.12 -0.29,-0.66 1.96,-0.56 3.34,0.16 c 4.55,2.39 -1.98,10.09 -4.65,4.82 q -0.43,-0.86 0.31,-0.26 l 1.29,1.03 a 1.62,1.62 0 0 0 1.87,0.1 c 3.46,-2.15 2.29,-6.07 -1.87,-5.19 z"
       id="path179"
       inkscape:label="path179" />
    <path
       fill="#1d1d1d"
       d="m 386.95562,515.28243 0.79,-0.76 q 0.87,-0.08 0,-1.36 a 0.58,0.58 0 0 1 0.69,-0.87 q 4.36,1.67 5.6,6.14 a 0.76,0.76 0 0 1 -0.24,0.77 l -3.06,2.63 q -0.45,0.4 -1.05,0.31 -5.33,-0.8 -4.7,-6.1 a 0.37,0.36 32.2 0 1 0.67,-0.15 q 0.11,0.18 0.38,0.36 0.27,0.18 0.48,0.11 0.45,-0.17 0.44,-1.08 z"
       id="path180" />
    <path
       fill="#1d1d1d"
       d="m 360.79642,515.24885 0.79,-0.76 q 0.87,-0.08 0,-1.36 a 0.58,0.58 0 0 1 0.69,-0.87 q 4.36,1.67 5.6,6.14 a 0.76,0.76 0 0 1 -0.24,0.77 l -3.06,2.63 q -0.45,0.4 -1.05,0.31 -5.33,-0.8 -4.7,-6.1 a 0.37,0.36 32.2 0 1 0.67,-0.15 q 0.11,0.18 0.38,0.36 0.27,0.18 0.48,0.11 0.45,-0.17 0.44,-1.08 z"
       id="path180-6" />
    <path
       fill="#1d1d1d"
       d="m 340.51679,514.39923 0.79,-0.76 q 0.87,-0.08 0,-1.36 a 0.58,0.58 0 0 1 0.69,-0.87 q 4.36,1.67 5.6,6.14 a 0.76,0.76 0 0 1 -0.24,0.77 l -3.06,2.63 q -0.45,0.4 -1.05,0.31 -5.33,-0.8 -4.7,-6.1 a 0.37,0.36 32.2 0 1 0.67,-0.15 q 0.11,0.18 0.38,0.36 0.27,0.18 0.48,0.11 0.45,-0.17 0.44,-1.08 z"
       id="path180-6-3" />
    <path
       fill="#515151"
       d="m 458.86562,512.25243 q 0,0.54 0.29,0.66 -1.16,1.36 -1.62,3.39 a 0.2,0.2 0 0 1 -0.32,0.11 l -0.37,-0.27 q -0.33,-0.25 -0.11,-0.6 z"
       id="path181" />
    <path
       fill="#7f7f7f"
       d="m 299.76562,512.72243 q 0.3,1.15 -1.03,1.44 -0.45,0.06 -0.6,-0.05 a 0.63,0.63 0 0 1 -0.16,-0.88 q 0.82,-1.18 1.79,-0.51 z"
       id="path182" />
    <path
       fill="#3f3f3f"
       d="m 322.78562,507.58243 q 0.13,-0.63 0.02,-0.88 a 1.14,1 45.3 0 0 -2.02,-0.14 l -0.31,1.02 q -0.43,-1.08 0.45,-1.85 a 1.44,1.44 0 0 1 2.33,0.69 q 0.3,1.05 -0.47,1.16 z"
       id="path165" />
    <path
       fill="#7f7f7f"
       d="m 346.59562,506.55243 -0.1,0.98 q -0.04,0.38 -0.31,0.1 -0.35,-0.36 -0.17,-1.08 0.23,-0.9 0.99,-0.99 0.74,-0.08 0.15,0.38 l -0.39,0.3 q -0.15,0.12 -0.17,0.31 z"
       id="path166" />
    <path
       fill="#3f3f3f"
       d="m 300.05562,507.41243 q -0.27,-0.05 -0.5,-0.27 a 0.72,0.72 0 0 1 0.51,-1.24 l 1.81,0.06 a 0.88,0.88 0 0 1 0.37,1.66 q -0.64,0.32 -1.59,-0.08 a 0.72,0.02 10.4 0 0 -0.6,-0.13 z"
       id="path169" />
    <path
       fill="#313131"
       d="m 438.82562,507.22243 q -0.06,0.13 -0.21,0.18 -6.72,2.17 -8.86,8.91 a 0.91,0.91 0 0 1 -1.78,-0.34 q 0.51,-7.21 6.75,-10.52 c 2.46,-1.3 4.89,-1.15 7.39,-0.19 a 0.59,0.6 57.2 0 1 -0.25,1.15 q -1.49,-0.08 -2.82,0.59 -0.14,0.07 -0.22,0.22 z"
       id="path163" />
    <path
       fill="#3f3f3f"
       d="m 316.13562,508.86243 q 0.55,-1.48 0.01,-2.47 -0.23,-0.44 -0.72,-0.46 l -1.38,-0.08 q 0.21,-1.7 2.28,-1.08 0.48,0.15 0.64,0.63 0.88,2.71 -0.83,3.46 z"
       id="path164" />
    <ellipse
       fill="#515151"
       cx="489.00543"
       cy="-367.5065"
       transform="rotate(92.9)"
       rx="1.61"
       ry="1.33"
       id="ellipse164" />
    <path
       fill="#1d1d1d"
       d="m 443.51562,527.09243 q -0.63,0.53 -1.06,0.59 -8.29,1.2 -12.86,-4.32 -3,-3.61 -2.89,-8.25 0.12,-5.13 3.98,-8.59 2.82,-2.54 8.78,-4.13 a 1.56,1.6 48.3 0 1 0.92,0.04 c 2.39,0.84 5.07,1.34 6.91,2.91 q 2.11,1.8 3.29,4.44 3.43,7.68 -1.94,14.17 -1.83,2.22 -4.42,2.78 a 1.62,1.63 18.3 0 0 -0.71,0.36 z m -4.47,-20.09 q 1.33,-0.67 2.82,-0.59 a 0.59,0.6 57.2 0 0 0.25,-1.15 c -2.5,-0.96 -4.93,-1.11 -7.39,0.19 q -6.24,3.31 -6.75,10.52 a 0.91,0.91 0 0 0 1.78,0.34 q 2.14,-6.74 8.86,-8.91 0.15,-0.05 0.21,-0.18 0.08,-0.15 0.22,-0.22 z"
       id="path160" />
    <path
       fill="#515151"
       d="m 285.44562,507.65243 q 0.09,0.24 0.21,0.46 a 0.67,0.66 80.7 0 1 -0.7,0.98 l -4.97,-0.92 q -0.5,-0.1 -0.89,0.22 -1.93,1.58 -3.54,-0.83 -0.21,-0.31 -0.15,-0.68 0.09,-0.61 -0.32,-1.04 a 0.36,0.36 0 0 0 -0.61,0.13 l -0.87,2.61 a 0.57142366,0.57142366 0 0 1 -1.1,-0.31 l 0.8,-3.4 q 0.13,-0.56 0.71,-0.66 1.97,-0.33 3.35,0.95 a 0.88,0.87 51.2 0 0 1.04,0.12 q 2,-1.17 4.16,-0.36 0.54,0.2 1.06,-0.04 1.9,-0.87 3.22,0.99 0.24,0.35 -0.06,0.64 l -0.24,0.24 q -0.32,0.31 -0.56,-0.06 -0.58,-0.87 -1.64,-0.78 -0.6,0.06 -0.08,0.36 0.35,0.2 0.75,0.29 a 0.48,0.48 0 0 1 0.36,0.44 q 0,0.16 0,0.31 0,0.18 0.07,0.34 z"
       id="path162" />
    <path
       fill="#515151"
       d="m 322.78562,507.58243 q -0.1,0.81 -0.79,0.85 -1.37,0.09 -1.52,-0.85 l 0.31,-1.02 a 1.14,1 45.3 0 1 2.02,0.14 q 0.11,0.25 -0.02,0.88 z"
       id="path170"
       style="display:inline" />
  </g>
</svg>
