<svg xmlns="http://www.w3.org/2000/svg" id="svg1" width="460.968" height="359.869" version="1.0" viewBox="0 0 69.145 53.98"><defs><style>#play{transform-origin:center;z-index:110;fill:#000;stroke:#000;stroke-width:4.8
          stroke-opacity:1}#cross{fill:#000;color:#000}#speaker{display:none;stroke-width:4.99995;stroke:#000;fill:none}#waves{display:none;stroke-width:4.99995;stroke:#000;fill:none}#speaker{fill-opacity:1;stroke-width:5;fill:#000}</style></defs><path id="speaker" d="M35.889 2.5 18.735 17.337H2.5V36.43h15.989l17.4 15.05z" style="display:inline;stroke-linejoin:round;stroke-opacity:1"/><path id="play" d="M35.889 2.5v48.98L7.659 26.99z" style="display:inline;stroke-linecap:round;stroke-linejoin:round;stroke-dasharray:none;paint-order:markers stroke fill"/><path id="waves" d="M44.5 16.33a19.5 19.5 0 0 1 0 21.4m7.1-28.5a30 30 0 0 1 0 35.6m6.5-42.1a38.8 38.8 0 0 1 0 48.6" style="stroke-linecap:round;stroke-dasharray:none;stroke-opacity:1"/><path id="cross" d="M23.26 46.507a2.48 2.48 0 0 0-1.75-.726h-.022a2.475 2.475 0 0 0-2.474 2.477v9h-8.975a2.475 2.475 0 0 0-2.474 2.475v.023a2.475 2.475 0 0 0 2.474 2.474h8.975v8.963a2.475 2.475 0 0 0 2.474 2.475h.022a2.475 2.475 0 0 0 2.474-2.475V62.23h8.99a2.475 2.475 0 0 0 2.477-2.474v-.023a2.475 2.475 0 0 0-2.476-2.475h-8.99v-9a2.48 2.48 0 0 0-.725-1.75" style="stroke-linecap:round;stroke-linejoin:round;paint-order:markers stroke fill" transform="rotate(-45)"/></svg>
