<?xml version="1.0" encoding="UTF-8" standalone="no"?>
<svg
   id="svg1"
   width="460.968"
   height="359.869"
   version="1.0"
   viewBox="0 0 69.145 53.98"
   sodipodi:docname="speaker.svg"
   inkscape:version="1.3.2 (091e20e, 2023-11-25)"
   xmlns:inkscape="http://www.inkscape.org/namespaces/inkscape"
   xmlns:sodipodi="http://sodipodi.sourceforge.net/DTD/sodipodi-0.dtd"
   xmlns="http://www.w3.org/2000/svg"
   xmlns:svg="http://www.w3.org/2000/svg">
  <sodipodi:namedview
     id="namedview1"
     pagecolor="#ffffff"
     bordercolor="#000000"
     borderopacity="0.25"
     inkscape:showpageshadow="2"
     inkscape:pageopacity="0.0"
     inkscape:pagecheckerboard="0"
     inkscape:deskcolor="#d1d1d1"
     inkscape:zoom="1.1595093"
     inkscape:cx="108.66666"
     inkscape:cy="133.67724"
     inkscape:window-width="1344"
     inkscape:window-height="449"
     inkscape:window-x="0"
     inkscape:window-y="38"
     inkscape:window-maximized="0"
     inkscape:current-layer="svg1" />
  <defs
     id="defs1">
    <style
       id="style1">
        #play{transform-origin:center;z-index:110;fill:#000;stroke:#000;stroke-width:5;display:inline;stroke-linecap:round;stroke-linejoin:round;stroke-dasharray:none;}
        #cross{fill:#000;color:#000;stroke:#000}
        #speaker{display:none;stroke-width:5;stroke:#000;fill:none;stroke-linecap:round;stroke-linejoin:round;}
        #waves{fill:none;stroke:#000;stroke-width:5;stroke-linecap:round}
        #speaker{stroke-width:5;fill:#000;display:inline;stroke-linejoin:round;}</style>
  </defs>
  <path
     style="stroke:none;color:#000000;display:inline;fill:#000000;fill-opacity:0.75;stroke-linecap:round;stroke-linejoin:round;-inkscape-stroke:none"
     d="M 36.927734,0.2265625 C 36.038282,-0.1796684 34.993643,-0.03010711 34.253906,0.609375 L 17.804687,14.837891 H 2.5 c -1.3806547,1.38e-4 -2.49986195524,1.119345 -2.5,2.5 v 19.091796 c 1.3804476e-4,1.380655 1.1193453,2.499862 2.5,2.5 h 15.058594 l 16.695312,14.441407 c 1.619403,1.399029 4.133602,0.249409 4.134766,-1.890625 V 2.5 C 38.388451,1.5216181 37.817582,0.63325943 36.927734,0.2265625 Z"
     id="speaker"
     sodipodi:nodetypes="cccccccccccc"
     inkscape:label="speaker" />
  <path
     style="color:#000000;display:inline;fill:#000000;fill-opacity:0.75;stroke:none;stroke-linecap:round;stroke-linejoin:round;-inkscape-stroke:none"
     d="M 36.925781,0.2265625 C 36.03543,-0.17999408 34.989724,-0.02962609 34.25,0.61132812 L 6.0214844,25.101562 c -1.1492318,0.99688 -1.1492318,2.780464 0,3.777344 L 34.25,53.369141 c 1.618844,1.404477 4.138791,0.254506 4.138672,-1.888672 V 2.5 C 38.38811,1.5211613 37.816397,0.63267727 36.925781,0.2265625 Z"
     id="play"
     sodipodi:nodetypes="cccccccc"
     inkscape:label="play" />
  <path
     d="m 44.111596,16.331896 a 19.5,19.5 0 0 1 0,21.4 m 7.1,-28.4999996 a 30,30 0 0 1 0,35.5999996 m 6.5,-42.0999996 a 38.8,38.8 0 0 1 0,48.5999996"
     id="waves"
     style="stroke:#000000;stroke-opacity:0.75;fill:none;fill-opacity:0.75;stroke-width:4.99993568;stroke-dasharray:none" />
  <path
     id="cross"
     d="M23.26 46.507a2.48 2.48 0 0 0-1.75-.726h-.022a2.475 2.475 0 0 0-2.474 2.477v9h-8.975a2.475 2.475 0 0 0-2.474 2.475v.023a2.475 2.475 0 0 0 2.474 2.474h8.975v8.963a2.475 2.475 0 0 0 2.474 2.475h.022a2.475 2.475 0 0 0 2.474-2.475V62.23h8.99a2.475 2.475 0 0 0 2.477-2.474v-.023a2.475 2.475 0 0 0-2.476-2.475h-8.99v-9a2.48 2.48 0 0 0-.725-1.75"
     transform="rotate(-45)"
     style="stroke:none;stroke-opacity:0.75;fill:#000000;fill-opacity:0.75;stroke-width:0;stroke-dasharray:none" />
</svg>
