<?xml version="1.0" encoding="UTF-8" standalone="no"?>
<svg
   width="200"
   height="200"
   version="1.1"
   id="svg8"
   sodipodi:docname="IEC_60417_-_Ref-No_5463.svg"
   inkscape:version="1.3 (0e150ed, 2023-07-21)"
   xmlns:inkscape="http://www.inkscape.org/namespaces/inkscape"
   xmlns:sodipodi="http://sodipodi.sourceforge.net/DTD/sodipodi-0.dtd"
   xmlns="http://www.w3.org/2000/svg"
   xmlns:svg="http://www.w3.org/2000/svg">
  <defs
     id="defs8" />
  <sodipodi:namedview
     id="namedview8"
     pagecolor="#ffffff"
     bordercolor="#000000"
     borderopacity="0.25"
     inkscape:showpageshadow="2"
     inkscape:pageopacity="0.0"
     inkscape:pagecheckerboard="0"
     inkscape:deskcolor="#d1d1d1"
     inkscape:zoom="1.18"
     inkscape:cx="-20.338983"
     inkscape:cy="222.88136"
     inkscape:window-width="1344"
     inkscape:window-height="449"
     inkscape:window-x="0"
     inkscape:window-y="38"
     inkscape:window-maximized="0"
     inkscape:current-layer="g8" />
  <g
     fill="none"
     stroke="#000"
     stroke-width="5"
     id="g4">
    <path
       d="m100.26 166.49c-24.659 0-49.032-5.2883-71.511-15.523-5.1594-16.544-7.7639-33.751-7.7639-51.056 0-17.336 2.6139-34.573 7.7484-51.113 22.313-10.069 46.524-15.286 71.015-15.286 24.659 0 49.032 5.2883 71.511 15.523 5.1594 16.544 7.7639 33.751 7.7639 51.056 0 17.336-2.6139 34.573-7.7484 51.113-22.313 10.069-46.524 15.286-71.015 15.286z"
       id="path1" />
    <path
       d="m36.649 66.736h126.69"
       id="path2" />
    <path
       d="m36.649 99.999h126.69"
       id="path3" />
    <path
       d="m36.649 133.26h126.69"
       id="path4" />
  </g>
  <g
     fill="none"
     stroke="#999"
     stroke-width="3"
     id="g8" />
</svg>
